<svg xmlns="http://www.w3.org/2000/svg" viewBox="0 0 584 651" fill="none">
    <defs>
        <linearGradient id="faviconGrad" x1="0%" y1="0%" x2="100%" y2="100%">
            <stop offset="0%" stop-color="#00D4FF"/>
            <stop offset="100%" stop-color="#7B61FF"/>
        </linearGradient>
    </defs>
    <path d="M 159 228 L 582 228 L 582 308 L 218 308 L 185 341 L 582 342 L 582 460 L 577 479 L 562 502 L 547 514 L 329 640 L 319 645 L 299 650 L 272 648 L 255 641 L 51 523 L 122 451 L 141 464 L 264 534 L 285 539 L 309 537 L 332 527 L 448 460 L 470 441 L 479 427 L 479 422 L 104 422 L 22 503 L 9 487 L 1 465 L 0 387 L 158 229 Z M 278 1 L 298 0 L 325 8 L 545 135 L 554 141 L 573 163 L 580 180 L 582 194 L 453 194 L 318 116 L 295 111 L 270 114 L 254 121 L 123 198 L 106 218 L 97 243 L 0 340 L 0 191 L 6 169 L 15 154 L 37 135 L 257 8 L 277 2 Z" fill="url(#faviconGrad)" fill-rule="evenodd"/>
</svg>